{"glyphs":{"P":{"ha":1038,"x_min":63,"x_max":982,"o":"m 982 869 l 929 443 q 885 376 918 403 q 822 350 853 350 l 356 350 l 315 83 l 63 83 l 156 831 l 115 869 l 982 869 m 410 736 l 382 483 l 663 483 l 703 736 l 410 736 z "},"a":{"ha":838,"x_min":56,"x_max":789,"o":"m 517 536 l 375 536 l 363 483 l 96 483 l 136 669 l 789 669 l 708 150 l 763 83 l 136 83 q 76 110 96 83 q 56 176 56 136 l 96 431 l 496 431 l 517 536 m 336 297 l 322 217 l 456 217 l 469 297 l 336 297 z "},"b":{"ha":885,"x_min":56,"x_max":829,"o":"m 442 950 l 403 669 l 829 669 l 763 176 q 724 110 751 136 q 656 83 696 83 l 56 83 l 175 910 l 149 950 l 442 950 m 389 536 l 343 217 l 501 217 l 549 536 l 389 536 z "},"e":{"ha":871,"x_min":56,"x_max":815,"o":"m 763 324 l 336 324 l 322 217 l 696 217 l 763 269 l 722 83 l 136 83 q 76 110 96 83 q 56 176 56 136 l 122 669 l 815 669 l 763 324 m 375 536 l 363 457 l 522 457 l 536 536 l 375 536 z "},"l":{"ha":485,"x_min":56,"x_max":429,"o":"m 429 950 l 322 217 l 415 83 l 136 83 q 76 110 96 83 q 56 176 56 136 l 163 910 l 122 950 l 429 950 z "},"p":{"ha":929,"x_min":56,"x_max":874,"o":"m 874 669 l 807 176 q 793 139 804 156 q 766 110 782 122 q 733 90 750 97 q 700 83 715 83 l 368 83 l 322 -208 l 56 -208 l 179 629 l 140 669 l 874 669 m 433 536 l 383 204 l 544 204 l 593 536 l 433 536 z "},"v":{"ha":829,"x_min":28,"x_max":801,"o":"m 547 669 l 801 669 l 481 83 l 214 83 l 68 617 l 28 669 l 308 669 l 388 336 l 547 669 z "},"w":{"ha":922,"x_min":28,"x_max":894,"o":"m 388 669 l 547 669 l 575 376 l 681 669 l 894 669 l 681 83 l 468 83 l 428 376 l 308 83 l 94 83 l 54 631 l 28 669 l 254 669 l 281 376 l 388 669 z "},".":{"ha":344,"x_min":56,"x_max":289,"o":"m 78 243 l 289 243 l 267 85 l 56 85 l 78 243 z "},"上":{"ha":1278,"x_min":56,"x_max":1222,"o":"m 443 143 l 554 936 l 508 988 l 825 988 l 774 618 l 1222 618 l 1204 486 l 754 486 l 707 143 l 1182 143 l 1164 11 l 56 11 l 74 143 l 443 143 z "},"下":{"ha":1278,"x_min":75,"x_max":1201,"o":"m 1121 196 l 857 196 l 675 589 l 590 -12 l 326 -12 l 444 829 l 75 829 l 93 961 l 1201 961 l 1183 829 l 708 829 l 694 724 l 878 724 l 1121 196 z "},"作":{"ha":1278,"x_min":35,"x_max":1243,"o":"m 510 953 l 481 988 l 731 988 l 701 882 l 1243 882 l 1225 750 l 933 750 l 913 604 l 1151 604 l 1133 474 l 894 474 l 874 328 l 1139 328 l 1121 196 l 856 196 l 826 -12 l 575 -12 l 682 750 l 665 750 l 622 592 l 411 592 l 510 953 m 406 829 l 286 -12 l 35 -12 l 147 778 l 65 763 l 88 921 l 428 988 l 406 829 z "},"使":{"ha":1278,"x_min":44,"x_max":1233,"o":"m 713 732 l 721 789 l 451 789 l 469 917 l 739 917 l 743 943 l 703 986 l 988 986 l 978 917 l 1233 917 l 1215 789 l 960 789 l 951 732 l 1213 732 l 1163 381 l 863 381 l 749 247 l 926 140 l 1157 140 l 1136 -10 l 818 -10 l 643 124 l 529 -10 l 311 -10 l 513 225 l 360 342 l 613 342 l 646 381 l 400 381 l 450 732 l 713 732 m 403 828 l 286 -10 l 44 -10 l 153 775 l 88 761 l 110 919 l 425 986 l 403 828 m 679 496 l 696 615 l 624 615 l 607 496 l 679 496 m 935 615 l 918 496 l 989 496 l 1006 615 l 935 615 z "},"动":{"ha":1278,"x_min":11,"x_max":1265,"o":"m 767 697 l 692 697 l 711 829 l 800 829 l 828 940 l 786 988 l 1050 988 l 1011 829 l 1265 829 l 1160 79 q 1122 13 1153 39 q 1051 -12 1092 -12 l 831 -12 l 953 115 l 1035 697 l 978 697 l 803 -12 l 592 -12 l 767 697 m 561 328 l 553 -12 l 342 -12 l 342 25 l 11 -12 l 31 117 l 164 539 l 89 539 l 108 671 l 636 671 l 617 539 l 375 539 l 249 143 l 346 154 l 350 328 l 561 328 m 646 935 l 628 803 l 153 803 l 171 935 l 646 935 z "},"历":{"ha":1278,"x_min":-10,"x_max":1288,"o":"m 918 776 l 853 618 l 1214 618 l 1138 79 q 1101 13 1132 39 q 1031 -12 1071 -12 l 782 -12 l 906 117 l 957 486 l 800 486 l 597 -12 l 333 -12 l 536 486 l 376 486 l 396 618 l 589 618 l 638 735 l 603 776 l 918 776 m 1288 961 l 1269 829 l 392 829 l 228 -12 l -10 -12 l 169 911 l 126 961 l 1288 961 z "},"发":{"ha":1278,"x_min":29,"x_max":1249,"o":"m 869 988 l 747 776 l 1249 776 l 1231 644 l 671 644 l 640 592 l 1157 592 l 1124 354 l 922 207 l 1190 -12 l 906 -12 l 769 97 l 618 -12 l 333 -12 l 635 206 l 488 325 l 293 -12 l 29 -12 l 407 644 l 149 644 l 167 776 l 235 897 l 203 935 l 493 935 l 404 776 l 483 776 l 585 951 l 553 988 l 869 988 m 1228 817 l 990 817 l 958 961 l 1196 961 l 1228 817 m 579 486 l 557 446 l 689 446 l 683 404 l 788 318 l 907 404 l 918 486 l 579 486 z "},"头":{"ha":1278,"x_min":47,"x_max":1231,"o":"m 596 513 l 656 935 l 611 988 l 928 988 l 860 513 l 1231 513 l 1211 381 l 731 381 l 364 -12 l 47 -12 l 414 381 l 103 381 l 122 513 l 596 513 m 1156 -12 l 865 -12 l 731 342 l 1021 342 l 1156 -12 m 456 724 l 549 551 l 271 551 l 178 724 l 456 724 m 499 935 l 592 763 l 314 763 l 221 935 l 499 935 z "},"履":{"ha":1278,"x_min":7,"x_max":1269,"o":"m 396 738 l 229 -11 l 7 -11 l 218 911 l 175 961 l 1269 961 l 1239 738 l 396 738 m 1215 569 l 1176 299 l 597 299 l 636 569 l 1215 569 m 646 69 l 742 92 l 635 142 l 549 142 l 626 285 l 786 285 l 774 264 l 1175 264 l 1161 169 l 1011 96 l 1117 69 l 1189 69 l 1178 -10 l 963 -10 l 875 31 l 790 -11 l 561 -11 l 572 69 l 646 69 m 565 364 l 558 363 l 565 363 l 513 -11 l 340 -11 l 388 329 l 351 322 l 374 481 l 588 522 l 565 364 m 836 692 l 1231 692 l 1218 607 l 785 607 l 772 585 l 611 585 l 689 719 l 853 719 l 836 692 m 593 560 l 378 518 l 400 676 l 615 718 l 593 560 m 417 824 l 1042 824 l 1049 872 l 426 872 l 417 824 m 997 364 l 1003 403 l 801 403 l 796 364 l 997 364 m 808 461 l 1010 461 l 1015 499 l 814 499 l 808 461 m 801 178 l 885 138 l 961 178 l 801 178 z "},"工":{"ha":1278,"x_min":8,"x_max":1268,"o":"m 475 169 l 564 803 l 142 803 l 160 935 l 1268 935 l 1250 803 l 828 803 l 739 169 l 1188 169 l 1169 38 l 8 38 l 26 169 l 475 169 z "},"左":{"ha":1278,"x_min":13,"x_max":1265,"o":"m 422 857 l 463 938 l 435 985 l 738 985 l 675 857 l 1265 857 l 1247 722 l 610 722 l 533 564 l 1174 564 l 1154 429 l 914 429 l 874 147 l 1169 147 l 1150 13 l 326 13 l 346 147 l 625 147 l 665 429 l 468 429 l 265 11 l 13 11 l 357 722 l 138 722 l 156 857 l 422 857 z "},"师":{"ha":1278,"x_min":21,"x_max":1256,"o":"m 1256 961 l 1238 832 l 1001 832 l 988 735 l 1222 735 l 1144 185 q 1108 118 1139 146 q 1038 90 1076 90 l 903 90 l 958 164 l 1021 601 l 968 601 l 882 -11 l 667 -11 l 753 601 l 703 601 l 631 90 l 447 90 l 538 735 l 772 735 l 786 832 l 549 832 l 567 961 l 1256 961 m 457 351 l 313 -11 l 115 -11 l 272 351 l 354 932 l 325 986 l 547 986 l 457 351 m 117 910 l 299 910 l 203 225 l 21 225 l 117 910 z "},"开":{"ha":1278,"x_min":29,"x_max":1247,"o":"m 1247 961 l 1229 829 l 1124 829 l 1083 539 l 1215 539 l 1196 407 l 1064 407 l 1006 -12 l 742 -12 l 800 407 l 418 407 l 293 -12 l 29 -12 l 154 407 l 35 407 l 54 539 l 193 539 l 279 829 l 121 829 l 139 961 l 1247 961 m 457 539 l 819 539 l 860 829 l 543 829 l 457 539 z "},"技":{"ha":1278,"x_min":4,"x_max":1272,"o":"m 742 463 l 856 335 l 992 443 l 999 497 l 546 497 l 563 619 l 769 619 l 785 732 l 569 732 l 588 864 l 804 864 l 814 933 l 781 986 l 1075 986 l 1057 864 l 1272 864 l 1254 732 l 1039 732 l 1022 619 l 1225 619 l 1192 385 l 969 210 l 1168 -10 l 906 -10 l 817 90 l 686 -11 l 421 -11 l 707 217 l 538 410 l 546 463 l 742 463 m 129 117 l 157 318 l 49 289 l 69 435 l 178 464 l 210 697 l 106 697 l 125 829 l 229 829 l 246 947 l 211 988 l 488 988 l 465 829 l 542 829 l 522 697 l 446 697 l 424 531 l 503 553 l 482 407 l 403 385 l 360 79 q 322 13 353 39 q 251 -12 290 -12 l 4 -12 l 129 117 z "},"操":{"ha":1278,"x_min":28,"x_max":1250,"o":"m 28 -11 l 117 114 l 144 315 l 75 294 l 94 439 l 165 461 l 199 699 l 132 699 l 150 831 l 217 831 l 233 944 l 200 985 l 447 985 l 425 831 l 461 831 l 443 699 l 407 699 l 383 529 l 419 540 l 400 394 l 363 383 l 321 81 q 286 15 315 40 q 219 -11 257 -11 l 28 -11 m 569 917 l 544 967 l 1232 967 l 1197 724 l 542 724 l 569 917 m 726 371 l 733 418 l 940 418 l 933 371 l 1235 371 l 1218 253 l 917 253 l 881 -11 l 674 -11 l 710 253 l 411 253 l 428 371 l 726 371 m 1250 699 l 1211 426 l 847 426 l 886 699 l 1250 699 m 857 699 l 818 426 l 456 426 l 494 699 l 857 699 m 571 -10 l 375 -10 l 485 224 l 671 224 l 571 -10 m 951 224 l 1142 224 l 1174 -10 l 983 -10 l 951 224 m 1000 817 l 1008 874 l 772 874 l 764 817 l 1000 817 m 1011 606 l 999 519 l 1085 519 l 1097 606 l 1011 606 m 621 606 l 608 519 l 692 519 l 704 606 l 621 606 z "},"杆":{"ha":1278,"x_min":10,"x_max":1267,"o":"m 810 576 l 843 815 l 674 815 l 694 958 l 1267 958 l 1246 815 l 1086 815 l 1053 576 l 1238 576 l 1218 436 l 1032 436 l 969 -11 l 726 -11 l 789 436 l 581 436 l 600 576 l 810 576 m 247 681 l 97 681 l 115 813 l 265 813 l 285 947 l 250 988 l 501 988 l 476 813 l 628 813 l 610 681 l 457 681 l 360 -12 l 149 -12 l 247 681 m 10 38 l 119 632 l 218 632 l 108 38 l 10 38 m 419 94 l 469 633 l 568 633 l 518 94 l 419 94 z "},"球":{"ha":1278,"x_min":24,"x_max":1253,"o":"m 564 -10 l 674 115 l 756 697 l 499 697 l 518 829 l 774 829 l 789 935 l 749 986 l 1014 986 l 992 829 l 1253 829 l 1233 697 l 974 697 l 888 78 q 854 14 881 38 q 792 -10 828 -10 l 564 -10 m 178 603 l 211 839 l 147 839 l 164 963 l 500 963 l 483 839 l 421 839 l 388 603 l 454 603 l 433 463 l 368 463 l 332 203 l 394 215 l 376 81 l 24 13 l 42 144 l 117 160 l 158 463 l 89 463 l 110 603 l 178 603 m 404 42 l 513 365 l 692 365 l 583 42 l 404 42 m 989 40 l 940 364 l 1119 364 l 1168 40 l 989 40 m 951 435 l 1029 646 l 1208 646 l 1131 435 l 951 435 m 522 435 l 503 646 l 682 646 l 701 435 l 522 435 m 1043 865 l 1032 965 l 1228 965 l 1239 865 l 1043 865 z "},"用":{"ha":1278,"x_min":3,"x_max":1274,"o":"m 918 117 l 940 275 l 756 275 l 715 -12 l 451 -12 l 492 275 l 296 275 l 240 -12 l 3 -12 l 182 911 l 139 961 l 1274 961 l 1150 79 q 1114 13 1144 39 q 1043 -12 1083 -12 l 794 -12 l 918 117 m 833 829 l 813 683 l 997 683 l 1018 829 l 833 829 m 774 407 l 958 407 l 979 551 l 794 551 l 774 407 m 322 407 l 510 407 l 531 551 l 350 551 l 322 407 m 375 683 l 549 683 l 569 829 l 404 829 l 375 683 z "},"的":{"ha":1278,"x_min":25,"x_max":1251,"o":"m 983 856 l 1251 856 l 1146 106 q 1110 38 1140 65 q 1039 11 1079 11 l 804 11 l 928 143 l 940 235 l 728 235 l 667 551 l 904 551 l 951 307 l 1010 724 l 908 724 l 849 618 l 638 618 l 553 11 l 25 11 l 147 882 l 236 882 l 274 950 l 240 988 l 557 988 l 500 882 l 675 882 l 656 742 l 775 950 l 742 988 l 1058 988 l 983 856 m 318 513 l 399 513 l 432 750 l 351 750 l 318 513 m 347 143 l 381 381 l 300 381 l 267 143 l 347 143 z "},"盘":{"ha":1278,"x_min":10,"x_max":1267,"o":"m 160 565 l 85 565 l 104 701 l 194 701 l 238 876 l 196 938 l 451 938 l 464 949 l 433 983 l 840 983 l 799 938 l 1243 938 l 1210 701 l 1267 701 l 1247 565 l 1192 565 l 1176 454 q 1143 417 1172 431 q 1074 404 1114 404 l 800 404 l 917 475 l 929 565 l 424 565 l 383 404 l 121 404 l 160 565 m 81 121 l 117 382 l 1164 382 l 1126 121 l 1183 121 l 1168 14 l 10 14 l 25 121 l 81 121 m 457 701 l 947 701 l 965 829 l 489 829 l 457 701 m 521 540 l 800 540 l 819 444 l 542 444 l 521 540 m 542 807 l 819 807 l 839 722 l 561 722 l 542 807 m 861 267 l 840 121 l 904 121 l 926 267 l 861 267 m 578 121 l 642 121 l 663 267 l 599 267 l 578 121 m 317 121 l 379 121 l 400 267 l 338 267 l 317 121 z "},"目":{"ha":1278,"x_min":44,"x_max":1233,"o":"m 171 908 l 125 961 l 1233 961 l 1100 11 l 44 11 l 171 908 m 365 419 l 893 419 l 914 565 l 386 565 l 365 419 m 854 143 l 874 288 l 346 288 l 326 143 l 854 143 m 404 697 l 932 697 l 951 829 l 424 829 l 404 697 z "},"移":{"ha":1278,"x_min":-1,"x_max":1281,"o":"m 576 833 l 449 822 l 433 707 l 581 707 l 561 565 l 413 565 l 332 -12 l 146 -12 l 226 565 l 72 565 l 92 707 l 247 707 l 261 806 l 114 793 l 133 935 l 596 975 l 576 833 m 914 235 l 918 124 l 956 124 l 1028 300 l 776 300 l 744 228 l 547 228 l 629 421 l 600 461 l 849 461 l 831 422 l 1210 422 l 1182 232 l 1079 -10 l 514 -10 l 532 124 l 772 124 l 767 235 l 914 235 m 913 933 l 1281 933 l 1254 743 l 1150 499 l 631 499 l 650 635 l 835 635 l 829 744 l 983 744 l 988 635 l 1028 635 l 1097 797 l 847 797 l 824 749 l 619 749 l 717 947 l 688 986 l 939 986 l 913 933 m 371 38 l 418 526 l 543 526 l 496 38 l 371 38 m -1 38 l 88 526 l 213 526 l 124 38 l -1 38 z "},"程":{"ha":1278,"x_min":10,"x_max":1267,"o":"m 749 344 l 760 429 l 551 429 l 568 550 l 1229 550 l 1213 429 l 1001 429 l 990 344 l 1175 344 l 1157 218 l 972 218 l 957 114 l 1178 114 l 1160 -8 l 482 -8 l 500 114 l 715 114 l 731 218 l 547 218 l 565 344 l 749 344 m 564 847 l 463 838 l 444 707 l 564 707 l 546 579 l 411 579 l 328 -12 l 144 -12 l 228 579 l 86 579 l 104 707 l 231 707 l 247 818 l 128 807 l 146 935 l 582 975 l 564 847 m 653 961 l 1267 961 l 1217 604 l 603 604 l 653 961 m 10 38 l 99 526 l 217 526 l 128 38 l 10 38 m 361 38 l 411 526 l 529 526 l 479 38 l 361 38 m 1025 725 l 1040 840 l 843 840 l 828 725 l 1025 725 z "},"箭":{"ha":1278,"x_min":19,"x_max":1258,"o":"m 274 511 l 274 513 l 669 513 l 608 81 q 571 15 601 40 q 506 -11 540 -11 l 326 -11 l 404 85 l 406 101 l 242 101 l 226 -10 l 19 -10 l 92 511 l 274 511 m 274 658 l 253 725 l 492 725 l 513 658 l 711 658 l 751 725 l 990 725 l 950 658 l 1217 658 l 1200 539 l 42 539 l 58 658 l 274 658 m 972 935 l 1258 935 l 1244 829 l 1111 829 l 1154 750 l 943 750 l 904 819 l 864 750 l 626 750 l 743 951 l 713 988 l 1003 988 l 972 935 m 1147 514 l 1086 82 q 1053 16 1081 42 q 985 -10 1025 -10 l 800 -10 l 892 93 l 951 514 l 1147 514 m 418 935 l 678 935 l 664 829 l 557 829 l 600 750 l 389 750 l 351 821 l 310 750 l 72 750 l 189 951 l 158 988 l 449 988 l 418 935 m 875 463 l 824 92 l 664 92 l 715 463 l 875 463 m 257 210 l 421 210 l 428 258 l 264 258 l 257 210 m 285 410 l 278 364 l 443 364 l 450 410 l 285 410 z "},"纵":{"ha":1278,"x_min":57,"x_max":1219,"o":"m 1219 988 l 1132 701 l 1185 -11 l 1019 -11 l 1000 271 l 913 -12 l 713 -12 l 778 199 l 714 199 l 694 300 l 599 -12 l 397 -12 l 690 944 l 668 988 l 907 988 l 800 642 l 849 431 l 1007 944 l 983 988 l 1219 988 m 151 699 l 331 931 l 304 965 l 589 965 l 392 699 l 551 699 l 354 432 l 457 432 l 439 300 l 96 300 l 114 432 l 222 567 l 133 567 l 151 699 m 388 38 l 57 11 l 75 143 l 406 169 l 388 38 z "},"经":{"ha":1278,"x_min":18,"x_max":1260,"o":"m 700 143 l 725 328 l 514 328 l 533 460 l 1219 460 l 1200 328 l 989 328 l 964 143 l 1175 143 l 1156 11 l 469 11 l 489 143 l 700 143 m 110 644 l 290 926 l 260 961 l 550 961 l 347 644 l 506 644 l 303 328 l 461 328 l 443 196 l 47 196 l 65 328 l 183 513 l 92 513 l 110 644 m 1258 503 l 1004 503 l 936 581 l 817 503 l 517 503 l 976 828 l 622 828 l 640 957 l 1260 957 l 1240 815 l 1083 696 l 1088 696 l 1258 503 m 417 11 l 18 -12 l 36 117 l 436 143 l 417 11 z "},"能":{"ha":1278,"x_min":19,"x_max":1258,"o":"m 310 -12 l 371 38 l 389 169 l 282 169 l 257 -12 l 19 -12 l 113 644 l 693 644 l 614 79 q 576 13 607 39 q 506 -12 546 -12 l 310 -12 m 1239 776 l 983 733 l 971 644 l 1168 644 l 1228 697 l 1203 513 l 715 513 l 782 988 l 1019 988 l 1001 865 l 1258 908 l 1239 776 m 1165 249 l 910 206 l 897 117 l 1097 117 l 1094 118 l 1154 171 l 1128 -12 l 640 -12 l 707 460 l 944 460 l 928 338 l 1183 381 l 1165 249 m 678 908 l 697 671 l 513 671 l 510 694 l 117 671 l 133 789 l 219 950 l 188 988 l 478 988 l 378 804 l 500 811 l 493 908 l 678 908 m 324 460 l 429 460 l 439 526 l 333 526 l 324 460 m 299 289 l 406 289 l 413 340 l 307 340 l 299 289 z "},"角":{"ha":1278,"x_min":6,"x_max":1271,"o":"m 931 724 l 978 803 l 399 803 l 379 763 l 115 763 l 207 949 l 174 988 l 490 988 l 464 935 l 1247 935 l 1229 803 l 1225 776 l 1194 724 l 1271 724 l 1181 79 q 1143 13 1174 39 q 1072 -12 1113 -12 l 824 -12 l 949 117 l 957 183 l 746 183 l 718 -12 l 454 -12 l 482 183 l 285 183 l 243 -12 l 6 -12 l 163 724 l 931 724 m 764 315 l 976 315 l 988 394 l 775 394 l 764 315 m 313 315 l 500 315 l 511 394 l 329 394 l 313 315 m 803 592 l 794 526 l 1006 526 l 1015 592 l 803 592 m 358 526 l 531 526 l 539 592 l 372 592 l 358 526 z "},"键":{"ha":1278,"x_min":29,"x_max":1247,"o":"m 803 221 l 649 221 l 664 326 l 817 326 l 822 365 l 721 365 l 735 468 l 838 468 l 843 513 l 742 513 l 756 618 l 858 618 l 867 671 l 735 671 l 749 776 l 881 776 l 889 829 l 783 829 l 797 935 l 903 935 l 911 988 l 1096 988 l 1088 935 l 1240 935 l 1218 776 l 1247 776 l 1233 671 l 1203 671 l 1182 513 l 1028 513 l 1022 468 l 1154 468 l 1140 365 l 1007 365 l 1001 326 l 1182 326 l 1167 221 l 988 221 l 981 174 l 796 174 l 803 221 m 567 11 l 529 58 l 511 14 l 344 14 l 419 197 l 385 242 l 410 421 l 479 343 l 539 489 l 551 515 l 418 515 l 574 832 l 471 832 l 486 938 l 756 938 l 740 832 l 626 621 l 725 621 l 706 489 l 593 215 l 657 144 l 1160 144 l 1142 11 l 567 11 m 126 463 l 140 553 l 85 553 l 103 685 l 393 685 l 375 553 l 335 553 l 321 463 l 388 463 l 368 331 l 303 331 l 281 174 l 350 196 l 331 64 l 60 -12 l 108 331 l 29 331 l 49 463 l 126 463 m 392 988 l 350 888 l 447 888 l 428 756 l 294 756 l 278 714 l 83 714 l 179 946 l 144 988 l 392 988 m 1061 618 l 1068 671 l 1019 671 l 1013 618 l 1061 618 m 1043 829 l 1035 776 l 1083 776 l 1092 829 l 1043 829 z "},"项":{"ha":1278,"x_min":-4,"x_max":1282,"o":"m 1282 961 l 1264 826 l 979 826 l 949 760 l 1224 760 l 1154 264 l 985 264 l 957 296 l 1004 636 l 706 636 l 658 296 l 622 264 l 453 264 l 522 760 l 742 760 l 772 826 l 506 826 l 524 961 l 1282 961 m 97 239 l 176 806 l 100 806 l 119 935 l 492 935 l 472 806 l 399 806 l 328 301 l 431 329 l 408 167 l -4 56 l 18 218 l 97 239 m 951 581 l 913 303 l 910 300 l 1133 -10 l 888 -10 l 793 169 l 633 -10 l 396 -10 l 704 303 l 743 581 l 951 581 z "},"验":{"ha":1278,"x_min":36,"x_max":1240,"o":"m 72 424 l 181 779 l 325 779 l 260 556 l 308 556 l 396 831 l 146 831 l 164 963 l 586 963 l 568 831 l 483 556 l 535 556 l 468 81 q 431 15 463 40 q 361 -11 400 -11 l 93 -11 l 182 122 l 281 122 l 324 424 l 72 424 m 1015 681 l 978 865 l 914 865 l 761 569 l 558 569 l 754 933 l 710 985 l 1140 985 l 1240 571 l 1039 571 l 1022 649 l 1011 551 l 793 551 l 819 681 l 1015 681 m 1233 493 l 1111 140 l 1193 140 l 1175 11 l 486 11 l 504 140 l 939 140 l 1061 493 l 1233 493 m 739 493 l 736 168 l 564 168 l 567 493 l 739 493 m 957 493 l 940 169 l 768 169 l 785 493 l 957 493 m 282 358 l 263 221 l 36 193 l 56 331 l 282 358 z "}}}
